<?xml version="1.0" standalone="no"?>
<!DOCTYPE svg PUBLIC "-//W3C//DTD SVG 20010904//EN"
 "http://www.w3.org/TR/2001/REC-SVG-20010904/DTD/svg10.dtd">
<svg version="1.0" xmlns="http://www.w3.org/2000/svg"
 width="1024.000000pt" height="1024.000000pt" viewBox="0 0 1024.000000 1024.000000"
 preserveAspectRatio="xMidYMid meet">
<metadata>
Created by potrace 1.14, written by Peter Selinger 2001-2017
</metadata>
<g transform="translate(0.000000,1024.000000) scale(0.100000,-0.100000)"
fill="#000000" stroke="none">
<path d="M0 5120 l0 -2560 855 0 855 0 0 1270 c0 840 3 1270 10 1270 6 0 10
-4 10 -10 0 -8 56 -96 70 -110 5 -5 10 -12 58 -88 15 -24 34 -52 43 -62 8 -10
24 -35 34 -54 11 -20 23 -36 27 -36 5 0 8 -5 8 -10 0 -6 5 -16 11 -23 6 -7 32
-44 57 -83 26 -40 74 -112 106 -160 32 -49 75 -114 95 -144 20 -30 39 -56 44
-58 4 -2 7 -10 7 -17 0 -7 3 -15 8 -17 4 -1 23 -28 42 -58 19 -30 37 -57 40
-60 3 -3 17 -23 30 -45 13 -22 26 -42 29 -45 6 -5 10 -11 59 -88 15 -24 34
-52 43 -62 8 -10 24 -35 34 -54 11 -20 23 -36 27 -36 5 0 8 -5 8 -11 0 -6 6
-16 13 -24 6 -7 35 -48 62 -90 28 -43 61 -94 75 -115 14 -20 39 -58 55 -84 17
-26 37 -56 46 -66 8 -10 24 -35 34 -54 11 -20 23 -36 27 -36 5 0 8 -6 8 -14 0
-8 3 -16 8 -18 4 -1 23 -28 42 -58 19 -30 37 -57 40 -60 3 -3 17 -23 30 -45
13 -22 26 -42 29 -45 6 -5 13 -15 59 -89 15 -24 32 -48 37 -55 6 -6 22 -29 36
-51 14 -22 66 -100 114 -172 l89 -133 3413 0 3413 0 0 855 0 855 -1277 0
-1277 0 101 69 c56 37 115 77 131 87 75 47 538 360 550 371 6 6 21 15 32 18
11 3 20 11 20 16 0 5 7 9 15 9 8 0 15 5 15 10 0 6 4 10 9 10 7 0 369 238 406
267 32 25 168 113 175 113 5 0 10 3 12 8 4 8 184 132 193 132 3 0 15 9 27 20
12 11 28 20 35 20 7 0 13 5 13 10 0 6 6 10 14 10 8 0 16 4 18 8 2 5 125 90
273 189 149 99 325 217 393 262 l122 82 0 850 0 849 -3415 0 -3415 0 -1 -1207
c0 -665 0 -1238 1 -1275 1 -38 -2 -68 -7 -68 -7 1 -59 76 -103 149 -18 29
-131 201 -143 216 -9 12 -521 786 -592 895 -27 41 -52 77 -57 78 -4 2 -8 8 -8
12 0 11 -61 103 -74 112 -6 4 -7 8 -3 8 4 0 -1 10 -13 22 -11 12 -20 28 -20
35 0 7 -4 13 -8 13 -5 0 -16 15 -25 33 -10 17 -31 50 -48 72 -16 22 -33 47
-37 55 -13 27 -167 255 -174 258 -5 2 -8 9 -8 16 0 7 -8 21 -17 32 -10 10 -24
31 -32 46 -8 15 -22 36 -31 45 -9 10 -19 25 -22 33 -4 8 -67 105 -140 215
l-134 200 -857 3 -857 2 0 -2560z m7668 838 c-7 -7 -29 -22 -48 -32 -19 -11
-39 -24 -45 -29 -5 -5 -71 -48 -145 -97 -74 -49 -140 -94 -147 -99 -6 -6 -30
-20 -52 -32 -23 -12 -41 -25 -41 -30 0 -5 -4 -9 -10 -9 -5 0 -32 -16 -59 -35
-26 -19 -53 -35 -59 -35 -6 0 -12 -3 -14 -8 -4 -9 -269 -186 -285 -190 -7 -2
-13 -8 -13 -13 0 -5 -5 -9 -10 -9 -6 0 -16 -5 -23 -11 -18 -15 -417 -279 -423
-279 -5 0 -20 -12 -49 -37 -7 -7 -16 -13 -19 -13 -6 0 -200 -126 -221 -143 -5
-5 -89 -60 -185 -123 -96 -63 -184 -121 -195 -129 -11 -8 -65 -44 -120 -79
-55 -36 -105 -69 -111 -74 -5 -5 -21 -15 -35 -22 -13 -7 -26 -16 -29 -19 -3
-4 -36 -26 -75 -51 -38 -25 -72 -47 -75 -50 -8 -8 -49 -30 -56 -30 -3 0 -4 14
-2 30 3 17 1 33 -3 35 -4 3 -4 20 0 37 4 18 5 44 1 58 -4 14 -4 34 0 45 4 11
4 32 -1 47 -4 14 -5 29 -2 31 6 7 7 126 1 132 -3 3 -2 26 2 50 4 25 4 48 0 50
-4 2 -4 25 0 50 4 24 5 47 2 50 -6 6 -6 104 1 111 2 3 1 20 -3 38 -4 19 -4 39
-1 45 4 6 4 34 1 61 -4 28 -4 50 0 50 4 0 4 23 0 50 -4 28 -3 50 1 50 5 0 6 6
3 13 -8 23 -10 367 -1 367 5 0 6 4 3 8 -3 5 -5 30 -6 58 0 27 -1 65 -1 84 -1
19 -1 42 0 50 1 8 1 32 1 53 l-1 37 1281 0 c1026 0 1279 -2 1268 -12z"/>
</g>
</svg>
