<?xml version='1.0' encoding='utf-8'?>
<svg xmlns="http://www.w3.org/2000/svg" viewBox="0 0 639.15 619.6"> <g transform="translate(-93.545 -168.83)" stroke="#000"> <path d="m350.5 486.75h167.5v24.5h-167.5z" fill="#fff" stroke-width="2.5"/> <path d="m212.19 449.68 2.2005 58.726 60.985 3.6913v-63.256l-63.185 0.83894z" fill="#fff" fill-rule="evenodd"/> <path d="m275.53 448.93 0.47154 62.918 75.76-1.0014 0.31435-63.419-76.545 1.502z" fill="#fff" fill-rule="evenodd"/> <path d="m386.56 725.44-3.5625 1.0625-33.031-3 0.35355 27.974 37.146 2.9007-0.90625-28.938z" fill="#fff" fill-rule="evenodd"/> <path d="m139.89 604.39-0.22228-9.5582 2.4451 1.3337 0.44456 2.8897h-2.4451l-0.66684-4.4456" fill="#fff" fill-rule="evenodd"/> <path d="m139.26 515.97 0.04339 24.568 6.9701-0.391 0.02893-24.763-7.0424 0.58649z" fill="#fff" fill-rule="evenodd"/> <path d="m337.88 621.94-22.375 13-1.5312 74.375-1.2188 12.688s0.68102 18.586 1.3438 36.375l22.75-11.656c-0.60298-15.841-1.4062-31.688-1.4062-31.688l2.125-17.219 0.3125-75.875z" fill="#fff" fill-rule="evenodd"/> <path d="m480.56 737.03-13.062 9.2188-0.46875-0.03125v29.625l13.906-11.812-0.375-27z" fill="#fff" fill-rule="evenodd"/> <path d="m481.84 618.19-13 6.0625v70.219l-1.8125 9.375v42.375l0.46875 0.03125 13.062-9.2188-0.53125-41.031 3.0312-13.938-1.2188-63.875z" fill="#fff" fill-rule="evenodd"/> <path d="m466.62 746.19-55.406-3.2812 0.1973 28.89 55.021 4.6409s0.08053-15.468 0.1875-30.25z" fill="#fff" fill-rule="evenodd"/> <path d="m407.44 622.53c0.60495 1.5124-0.3125 67.094-0.3125 67.094l4.25 14.844-0.15625 38.438 55.406 3.2812c0.14742-20.37 0.36817-41.924 0.71875-42.625 0.60495-1.21 2.0938-10.281 2.0938-10.281l-0.59375-68.938-61.406-1.8125z" fill="#fff" fill-rule="evenodd"/> <path d="m404.72 622.19-18.156 8.4688 0.90625 55.344-2.0938 9.375 0.3125 30.312 16.906-5.0625v-35.219l3.0312-11.5-0.90625-51.719z" fill="#fff" fill-rule="evenodd"/> <path d="m386.56 630.34-38.719 1.2188-0.59375 46.281 2.7188 6.3438v39.312l33.031 3 3.5625-1.0625-0.90625-29.156 2.4375-11.188-1.5312-54.75z" fill="#fff" fill-rule="evenodd"/> <path d="m286.75 611.91-19.062 9.9688v70.469l-5.125 10.594 0.15625 32.844 0.4375 0.03125 22.25-11.406 0.125-26.594 2.7188-9.0938-1.5-76.812z" fill="#fff" fill-rule="evenodd"/> <path d="m285.41 724.41-22.25 11.406-0.4375-0.03125 0.125 31 22.406-11.5 0.15625-30.875z" fill="#fff" fill-rule="evenodd"/> <path d="m270.41 631.12v70.625l2.7188 18.125 0.78125 35.25 39.969 3.375 0.1875-0.09375-0.6875-36.719 1.2188-12.688 0.59375-74.562-44.781-3.3125z" fill="#fff" fill-rule="evenodd"/> <path d="m262.72 735.78-50.781-4.2812-0.1875-0.0625v0.84375l0.48039 28.287 50.613 6.2132-0.125-31z" fill="#fff" fill-rule="evenodd"/> <path d="m208.41 618.38v64l3.625 14.531-0.28125 34.531 0.1875 0.0625 50.781 4.2812-0.15625-32.531 4.8438-11.188-0.90625-70.469-58.094-3.2188z" fill="#fff" fill-rule="evenodd"/> <path d="m222.91 620.93 0.11386 142.72c2.6626 1.5487 5.5306 1.2499 8.4256 0.70713l-0.11385-143.9-8.4256 0.47949z" fill="#fff" fill-rule="evenodd"/> <path d="m239.39 621.61 0.07143 143.49c1.8555 0.4675 3.6642 0.87774 5.286 0.1768l-0.07143-144.14-5.286 0.47619z" fill="#fff" fill-rule="evenodd"/> <path d="m181.56 615.22v19" fill="#fff" fill-rule="evenodd"/> <path d="m178.5 614.22v16.5" fill="#fff" fill-rule="evenodd" stroke-width="2.5"/> <path d="m377 494h19.25v13.25h-19.25z" fill="#fff"/> <path d="m358.5 481h37.25v13.25h-37.25z" fill="#fff"/> <path d="m143.07 605.24 139.85 30.983 0.19752-122.94-139.44-10.587-0.60497 102.54z" fill="#7c7c7c" fill-rule="evenodd" stroke-width="3"/> <path d="m284.33 512.99 258.62-5.4447-0.30248 114.64-259.53 13.914 1.2099-123.11z" fill="#7c7c7c" fill-rule="evenodd" stroke-width="3"/> <path d="m208.86 448.84 0.02237 56.483 3.5931-2.5505-0.03887-54.804-3.5766 0.87117z" fill="#fff" fill-rule="evenodd"/> <path d="m208.86 448.84 0.02237 56.483 3.5931-2.5505-0.03887-54.804-3.5766 0.87117z" fill="#fff" fill-rule="evenodd"/> <path d="m266.14 536.55 0.40838 33.358 65.612-0.53089 0.27225-33.623-66.292 0.79633z" fill="#fff" fill-rule="evenodd"/> <path d="m486.35 438.74 0.22229 8.4467-58.905-0.22229 1.7783-7.5576 56.904-0.66684z" fill="#fff" fill-rule="evenodd"/> <path d="m491.69 460.63-0.55571 13.559h17.449l-0.33342 9.6693-3.0008 4.7791-5.2236 1.2226-73.242 1.0003-0.33343-26.896 11.67-4.5568 53.57 1.2226z" fill="#fff" fill-rule="evenodd"/> <path d="m457.9 395.62h28.23l-11.114 5.7794-17.338-0.22228 0.22228-5.5571z" fill="#fff" fill-rule="evenodd"/> <path d="m402.33 466.75h33.342v22.228h-33.342z" fill="#fff"/> <path d="m410.11 442.52 0.22228 67.352 16.449 1e-5 -0.22228-67.574-16.449 0.22228z" fill="#fff" fill-rule="evenodd"/> <path d="m484.71 511.07 0.11386 56.075 8.4256 1e-5 -0.11385-56.26-8.4256 0.18507z" fill="#fff" fill-rule="evenodd"/> <path d="m415.41 512.13 0.11386 56.075 8.4256 1e-5 -0.11385-56.26-8.4256 0.18507z" fill="#fff" fill-rule="evenodd"/> <path d="m340.46 511.07 0.11386 56.075 8.4256 1e-5 -0.11385-56.26-8.4256 0.18507z" fill="#fff" fill-rule="evenodd"/> <path d="m486.13 567.29 0.07143 56.075 5.286 1e-5 -0.07143-56.26-5.286 0.18507z" fill="#fff" fill-rule="evenodd"/> <path d="m417.89 570.82 0.07143 56.075 5.286 1e-5 -0.07143-56.26-5.286 0.18507z" fill="#fff" fill-rule="evenodd"/> <path d="m341.52 574.36 0.07143 56.075 5.286 1e-5 -0.07143-56.26-5.286 0.18507z" fill="#fff" fill-rule="evenodd"/> <path d="m273.29 572.6 0.04315 60.656 3.193 1e-5 -0.04315-60.856-3.193 0.20019z" fill="#fff" fill-rule="evenodd"/> <path d="m149.9 547.85 0.04315 60.656 3.193 1e-5 -0.04315-60.856-3.193 0.20019z" fill="#fff" fill-rule="evenodd"/> <path d="m149.54 496.94 0.04315 60.656 3.193 1e-5 -0.04315-60.856-3.193 0.20019z" fill="#fff" fill-rule="evenodd"/> <path d="m273.99 510.02 0.04315 60.656 3.193 1e-5 -0.04315-60.856-3.193 0.20019z" fill="#fff" fill-rule="evenodd"/> <path d="m273.99 510.02 0.04315 60.656 3.193 1e-5 -0.04315-60.856-3.193 0.20019z" fill="#fff" fill-rule="evenodd"/> <path d="m390.88 423.07h8.2245v7.2242h-8.2245z" fill="#fff" stroke-width="1.7"/> <path d="m390.88 414.51h14.337v7.5576h-14.337z" fill="#fff" stroke-width="1.7"/> <path d="m394.77 391.39v18.227l7.3353-0.44457 0.44456-18.449c-1.959-3.0956-5.9504-2.2488-7.7799 0.66685z" fill="#fff" fill-rule="evenodd"/> <path d="m455.01 409.18-0.22228 9.3359 36.232 0.22228-0.88913-9.3359-35.121-0.22228z" fill="#fff" fill-rule="evenodd"/> <path d="m398.89 421.18 0.22228 9.2247-9.447 0.33342-0.88913 7.0019 1.7783 3.0008-4.8902 0.66685 23.34 2.1117 0.66685 0.22228 17.116 0.55571-0.22228 1.4448 1.4448-0.55571 1.3337-5.4459 11.114-0.33343 0.22228-17.116h-10.003l-2.4451-11.336-1.8894 8.1133-9.8916-0.22229-5.1125-5.8905-5.1125 3.6677-1.4448 5.2236-5.8905-0.66685z" fill="#fff" fill-rule="evenodd"/> <path d="m283.28 401.69 16.794-0.70711" fill="#fff" fill-rule="evenodd" stroke-width="1.9"/> <path d="m102.88 438.1 0.7071 39.952" fill="#fff" fill-rule="evenodd"/> <path d="m105.26 436.16-0.30249-3.176 28.381-1.9661 133.8 6.2471 0.55248 7.667-135.21-4.5372-27.223-4.2347z" fill="#fff" fill-rule="evenodd"/> <path d="m106.6 477.52c-0.7071-3.182 0.53034-39.775 0.53034-39.775" fill="#fff" fill-rule="evenodd"/> <g fill="#fff" fill-rule="evenodd"> <path d="m267.41 415.18 0.44457-35.565 2.0005-0.22228-0.66685 35.676"/> <path d="m267.85 395.84c0.88913 0.22228 1.8894-0.11114 1.8894-0.11114"/> <path d="m267.63 403.84c0.88913 0.22228 1.8894 0 1.8894 0"/> <path d="m269.96 379.61 3.6677-0.66685 1.1114 35.676"/> </g> <path d="m276.47 379.29-72.577 30.662" fill="#fff" fill-rule="evenodd"/> <path d="m346.75 422.34-48.588 3.0041s-82.132 0-83.843 0.42777-29.089-2.1389-29.089-2.1389l56.894-3.4222 104.63 2.1291z" fill="#fff" fill-rule="evenodd"/> <path d="m202.56 410.11-87.923 21.205" fill="#fff" fill-rule="evenodd"/> <path d="m274.96 383.53-64.725 27.588" fill="#fff" fill-rule="evenodd"/> <path d="m211.42 411.35a5.4264 1.6545 0 1 1-10.853 0 5.4264 1.6545 0 1 1 10.853 0z" fill="#fff" stroke-width="1.076"/> <path d="m99.214 431.62h5.4447v6.3521h-5.4447z" fill="#fff" stroke-width="1.076"/> <path transform="matrix(.88174 -.47174 .47174 .88174 -195.96 98.188)" d="m101.33 439.94a3.4785 1.9661 0 1 1-6.9571 0 3.4785 1.9661 0 1 1 6.9571 0z" fill="#fff" stroke-width="1.076"/> <path d="m204.82 412.72-74.151 17.686" fill="#fff" fill-rule="evenodd"/> <path d="m180.58 420.43 1.2223 4.3798 58.971-4.0773 105.66 1.47 5.0472-4.4948-113.13-1.5124-57.774 4.2347z" fill="#fff" fill-rule="evenodd"/> <path d="m267 437.25-4.75 7.5-5.75-7.75-4 7.25-2.5-7.5-4.75 7.25-3.5-8-3.75 8-3.5-8.25-4.25 7.75-2.75-8s-4.5 7.75-5.75 7.5-2.5-7.75-2.5-7.75l-4.25 8.25-3.5-8.5-3.25 7.75-3.25-8-4 8.5-3-8.75-5.25 8-2-8-3.75 7.25-4.5-7-4.75 6.75-4.5-7.5-4.25 7.5-4.25-8.75-4.25 8.75-4-8.5s-3.25 6-3.25 7-3.75-6.25-4-7.5-3.5 7.25-3.5 7.25l-3.5-7-4.5 8-4.25-8.5-5.25 7.5s-1.5-6.75-1.5-7.75-4.75 6.75-4.75 6.75l-1.75-6.5-4.25 5.25s-0.75-2.75-0.75-5l-4.25 4.25-4.5-4" fill="#fff" fill-rule="evenodd"/> <path d="m212.19 426.36 46.839-1.4146 0.62871 23.891-47.153-0.15717-0.31435-22.319z" fill="#fff" fill-rule="evenodd"/> <path d="m95 442.75v42.75" fill="#fff" fill-rule="evenodd"/> <path transform="translate(0,-.35355)" d="m96.167 487.07a1.0607 1.2374 0 1 1-2.1213 0 1.0607 1.2374 0 1 1 2.1213 0z" fill="#fff"/> <path d="m106.77 477.52a1.591 3.0052 0 1 1-3.182 0 1.591 3.0052 0 1 1 3.182 0z" fill="#fff"/> <path transform="translate(.35355 -1.0607)" d="m105.71 482.65a1.0607 1.4142 0 1 1-2.1213 0 1.0607 1.4142 0 1 1 2.1213 0z" fill="#fff"/> <path d="m282.05 389.58 18.12 11.049" fill="#fff" fill-rule="evenodd"/> <path d="m281.78 385.69 2.4749 29.698" fill="#fff" fill-rule="evenodd"/> <path d="m276.13 386.5-0.16671 28.508" fill="#fff" fill-rule="evenodd"/> <path d="m280.72 385.6-3.9801 29.598" fill="#fff" fill-rule="evenodd" stroke-width="1.6"/> <path d="m275.42 385.42-7.0662 29.593" fill="#fff" fill-rule="evenodd" stroke-width="1.7"/> <path d="m166.15 417.56c1.8149 0 68.573-3.7872 68.573-3.7872l130.97 1.2099-8.3645 2.9198-119.29-1.6999-58.369 4.2247-13.522-2.8674z" fill="#fff" fill-rule="evenodd"/> <path d="m271.88 404.52 6.364-0.35355" fill="#fff" fill-rule="evenodd"/> <path d="m281.43 386.13-7.4246-0.35356v-0.35355l3.0936-7.3362 3.4472-0.08839 0.88388 8.1317z" fill="#fff" fill-rule="evenodd"/> <path d="m267.63 387.61c0.88913 0.22228 1.8894 0 1.8894 0" fill="#fff" fill-rule="evenodd"/> <path d="m427.45 190v7.113l10.447-1.7782-0.44457-6.8908-10.003 1.556z" fill="#fff" fill-rule="evenodd"/> <path d="m437.45 188.23 10.003 0.88913-0.22228 6.4462-9.1136-0.22229-0.66685-7.113z" fill="#fff" fill-rule="evenodd"/> <path d="m431.45 189.34-0.22228 6.8908" fill="#fff" fill-rule="evenodd"/> <path d="m427.45 193.56 9.7804-1.556" fill="#fff" fill-rule="evenodd"/> <path d="m447.01 192.23-9.1136-0.22229" fill="#fff" fill-rule="evenodd"/> <path d="m442.34 188.45v6.6685" fill="#fff" fill-rule="evenodd"/> <path d="m447.01 198.01-7.3353-12.226-8.0022 12.67 5.3348-0.66685 10.003 0.22228z" fill="#fff" fill-rule="evenodd"/> <path d="m437.67 197.78 2.0005-11.781" fill="#fff" fill-rule="evenodd"/> <path d="m431.23 199.79c0.22228 1.3337-3.7788 18.005-3.7788 18.005l5.3348-1.7783-1.556-16.227z" fill="#fff" fill-rule="evenodd"/> <path d="m435.67 199.12-2.8897 16.004 6.8908-0.44456-4.0011-15.56z" fill="#fff" fill-rule="evenodd"/> <path d="m436.56 200.01c0.88913 0.44456 6.8908 14.004 8.4467 14.004s1.7783-14.671 1.7783-14.671l3.5565 14.893-10.67 0.22229-3.112-14.448z" fill="#fff" fill-rule="evenodd"/> <path d="m427.89 218.23-0.22228 112.7" fill="#fff" fill-rule="evenodd"/> <path d="m440.34 214.68-0.44457 115.81" fill="#fff" fill-rule="evenodd"/> <path d="m450.34 215.12 0.88913 114.92-10.892-12.003 10.225-17.338-8.0022-12.226" fill="#fff" fill-rule="evenodd"/> <path d="m441.9 318.04 7.5576-0.66685" fill="#fff" fill-rule="evenodd"/> <path d="m441.23 284.7c1.3337 0.22228 9.1136-0.22229 9.1136-0.22229" fill="#fff" fill-rule="evenodd"/> <path d="m448.34 280.03-7.113-10.892" fill="#fff" fill-rule="evenodd"/> <path d="m441.9 262.91 7.7799 1.1114" fill="#fff" fill-rule="evenodd"/> <path d="m449.68 263.14-8.0022-11.114" fill="#fff" fill-rule="evenodd"/> <path d="m441.9 249.13 8.0022 0.44457" fill="#fff" fill-rule="evenodd"/> <path d="m443.23 244.69 7.5576-8.8913" fill="#fff" fill-rule="evenodd"/> <path d="m449.9 234.68-8.8913-0.44456" fill="#fff" fill-rule="evenodd"/> <path d="m441.01 220.24c1.556 1.3337 9.3359 12.226 9.3359 12.226" fill="#fff" fill-rule="evenodd"/> <path d="m441.9 218.9c0.88914 0 8.669 0.66685 8.669 0.66685" fill="#fff" fill-rule="evenodd"/> <path d="m447.01 264.47 0.88913 19.783" fill="#fff" fill-rule="evenodd"/> <path d="m428.34 236.02c4.0011 0.88913 10.003 0.22228 10.003 0.22228" fill="#fff" fill-rule="evenodd"/> <path d="m429.67 251.58 8.8913-0.22228" fill="#fff" fill-rule="evenodd"/> <path d="m428.12 266.03c1.3337 0.22228 10.892 0.44456 10.892 0.44456" fill="#fff" fill-rule="evenodd"/> <path d="m429.45 282.92 9.7804 0.66684" fill="#fff" fill-rule="evenodd"/> <path d="m428.78 305.59 11.114 2.8897" fill="#fff" fill-rule="evenodd"/> <path d="m439.23 312.26-17.116 11.114" fill="#fff" fill-rule="evenodd"/> <path d="m429.45 250.24c1.1114-0.44456 9.3359-13.115 9.3359-13.115" fill="#fff" fill-rule="evenodd"/> <path d="m428.56 218.9 10.892 16.893" fill="#fff" fill-rule="evenodd"/> <path d="m428.34 251.8c0.44456 0.88913 10.003 13.337 10.003 13.337" fill="#fff" fill-rule="evenodd"/> <path d="m428.78 269.14c1.3337 1.3337 10.67 13.559 10.67 13.559" fill="#fff" fill-rule="evenodd"/> <path d="m428.78 304.7 10.447-19.339" fill="#fff" fill-rule="evenodd"/> <path d="m410.11 307.15-0.44456 93.581" fill="#fff" fill-rule="evenodd"/> <path d="m423.23 306.26-0.22229 94.47" fill="#fff" fill-rule="evenodd"/> <path d="m408.56 303.37 14.671-2.4451" fill="#fff" fill-rule="evenodd"/> <path d="m410.11 303.59 0.66685 3.3342 2.2228-2.8897 0.44456 2.8897 2.6674-3.5565 0.22229 3.3342s2.8897-5.7793 2.8897-4.8902 2.4451 3.7788 2.4451 3.7788l-0.22228-4.0011" fill="#fff" fill-rule="evenodd"/> <path d="m410.11 308.04 12.448-1.3337" fill="#fff" fill-rule="evenodd"/> <path d="m423.23 313.37-13.115 2.4451c0.44457 1.556 3.3342 5.1125 3.3342 5.1125l2.8897-5.7794 3.112 4.0011 3.112-4.8902" fill="#fff" fill-rule="evenodd"/> <path d="m410.78 320.71 12.003-1.1114" fill="#fff" fill-rule="evenodd"/> <path d="m409.89 327.6 12.67-2.2228" fill="#fff" fill-rule="evenodd"/> <path d="m410.56 333.6 4.2234-5.7794 2.0005 5.3348 3.7788-6.0016 2.0005 4.4456-0.22228 0.66685-11.781 1.3337z" fill="#fff" fill-rule="evenodd"/> <path d="m411.45 334.93 5.7794 13.115 5.3348-14.448" fill="#fff" fill-rule="evenodd"/> <path d="m409.89 348.94 12.003-1.556" fill="#fff" fill-rule="evenodd"/> <path d="m411 350.27 3.7788 11.559 1.7783-13.115 1.3337 12.67 5.5571-4.4456" fill="#fff" fill-rule="evenodd"/> <path d="m411 372.28c0.88913 1.7783 10.892 24.896 10.892 24.896" fill="#fff" fill-rule="evenodd"/> <path d="m412.56 397.17 9.7804-16.004" fill="#fff" fill-rule="evenodd"/> <path d="m410.56 380.95 12.448-0.66685" fill="#fff" fill-rule="evenodd"/> <path d="m409.89 396.51 12.448 0.44457" fill="#fff" fill-rule="evenodd"/> <path d="m409.22 293.81c1.3337-0.44456 10.447-2.2228 10.447-2.2228" fill="#fff" fill-rule="evenodd"/> <path d="m415.89 293.37 4.0011 7.3353" fill="#fff" fill-rule="evenodd"/> <path d="m411.22 295.59-0.44457 7.113" fill="#fff" fill-rule="evenodd"/> <path d="m411.67 291.81-0.22228-5.3348" fill="#fff" fill-rule="evenodd"/> <path d="m412.56 286.7c0.88913 0.66685 3.5565 2.4451 3.5565 2.4451l-4.4456-0.22228 0.88913-2.2228z" fill="#fff" fill-rule="evenodd"/> <path d="m411.45 297.59 8.8913-0.66685v4.0011l-6.0016-1.7783-2.8897-1.556z" fill="#fff" fill-rule="evenodd"/> <path d="m424.56 332.27 16.227 1.3337" fill="#fff" fill-rule="evenodd"/> <path d="m436.56 330.04c2.0006 0.66684 18.672 0 18.672 0" fill="#fff" fill-rule="evenodd"/> <path d="m432.78 418.51 50.236 1.1114 0.22228 8.2245-41.122-1.1114-9.3359-8.2245z" fill="#fff" fill-rule="evenodd"/> <path d="m455.68 332.04 0.22228 74.909" fill="#fff" fill-rule="evenodd"/> <path d="m450.79 330.71-5.7794 17.56-2.2228-14.448" fill="#fff" fill-rule="evenodd"/> <path d="m478.8 428.07 5.3348 11.336-98.372 4.8587-0.91536-17.842 93.952 1.647z" fill="#fff" fill-rule="evenodd"/> <path d="m441.01 334.93c-0.22228 1.3337-0.22228 17.116-0.22228 17.116l-9.7804 49.569" fill="#fff" fill-rule="evenodd"/> <path d="m438.79 334.71-12.448 66.24" fill="#fff" fill-rule="evenodd"/> <path d="m397.22 381.39 29.341-37.121" fill="#fff" fill-rule="evenodd"/> <path d="m424.56 347.38c4.6679 1.3337 17.116 1.556 17.116 1.556l14.004-1.1114 5.1125-0.66684" fill="#fff" fill-rule="evenodd"/> <path d="m424.34 333.15c1.1114 1.7783 11.559 15.338 11.559 15.338" fill="#fff" fill-rule="evenodd"/> <path d="m424.34 349.16 8.669 15.56-9.3359-0.66685" fill="#fff" fill-rule="evenodd"/> <path d="m423.67 368.72 6.4462 12.448-6.8908-0.88913" fill="#fff" fill-rule="evenodd"/> <path d="m414.78 381.61-2.4451 13.782" fill="#fff" fill-rule="evenodd"/> <path d="m473.24 447.63 0.22228 4.2234-46.012-0.22228 0.44456-4.6679 47.568 0.22229-2.2228 0.44456z" fill="#fff" fill-rule="evenodd"/> <path d="m441.23 350.05c0.66684 1.7783 4.8902 15.115 4.8902 15.115l-0.22228 17.783 5.5571 34.454" fill="#fff" fill-rule="evenodd"/> <path d="m498.15 452.08 0.6502 8.4467-104.08-1.2882-0.27853-7.3808 103.71 0.22228z" fill="#fff" fill-rule="evenodd"/> <path d="m450.57 349.6 0.44456 22.895 1.3337 37.788" fill="#fff" fill-rule="evenodd"/> <path d="m432.34 372.72c0 1.1114 1.556 12.226 1.556 12.226" fill="#fff" fill-rule="evenodd"/> <path d="m438.34 372.05 0.22229 28.008" fill="#fff" fill-rule="evenodd"/> <path d="m441.23 356.72 1.1114 41.345" fill="#fff" fill-rule="evenodd"/> <path d="m433.23 218.01-1.1114 113.59" fill="#fff" fill-rule="evenodd"/> <path d="m437.01 218.23-1.556 112.47" fill="#fff" fill-rule="evenodd"/> <path d="m449.23 220.9-6.6685 12.226" fill="#fff" fill-rule="evenodd"/> <path d="m442.56 236.68 8.2245 13.559" fill="#fff" fill-rule="evenodd"/> <path d="m449.9 252.02-7.113 10.447" fill="#fff" fill-rule="evenodd"/> <path d="m449.23 285.81c0 1.1114-6.2239 12.67-6.2239 12.67" fill="#fff" fill-rule="evenodd"/> <path d="m441.9 301.81 6.6685 10.892" fill="#fff" fill-rule="evenodd"/> <path d="m449.23 318.48-7.113 9.5582" fill="#fff" fill-rule="evenodd"/> <path d="m403.67 362.94 16.671-0.44456" fill="#fff" fill-rule="evenodd"/> <path d="m400.11 367.83c0.11113 0.11114 21.117-0.66685 21.117-0.66685" fill="#fff" fill-rule="evenodd"/> <path d="m399.55 371.28c2.4451 0.22228 22.339-0.33342 22.339-0.33342" fill="#fff" fill-rule="evenodd"/> <path d="m419.67 363.16-0.66684 76.91" fill="#fff" fill-rule="evenodd"/> <path d="m405.22 362.94 0.44456 75.576" fill="#fff" fill-rule="evenodd"/> <path d="m405.89 394.06c1.556 0 13.337-0.66684 13.337-0.66684" fill="#fff" fill-rule="evenodd"/> <path d="m406.78 407.84h11.559" fill="#fff" fill-rule="evenodd"/> <path d="m406.33 425.18c2.2228 0.88913 11.336 0.44456 11.336 0.44456" fill="#fff" fill-rule="evenodd"/> <path d="m390.77 415.62-0.66685 21.117" fill="#fff" fill-rule="evenodd"/> <path d="m399.89 415.84c0.44457 1.3337 0 21.561 0 21.561" fill="#fff" fill-rule="evenodd"/> <path d="m390.33 429.4 8.8913-0.44457" fill="#fff" fill-rule="evenodd"/> <path d="m390.77 422.51c1.1114 0.44456 8.8913 0.22228 8.8913 0.22228" fill="#fff" fill-rule="evenodd"/> <path d="m401.22 430.51-16.004-0.22228 0.88913 11.114 42.068 3.4263 12.238-5.1329" fill="#fff" fill-rule="evenodd"/> <path d="m384.55 437.63 34.232-0.44456 12.67 1.556" fill="#fff" fill-rule="evenodd"/> <path d="m431.9 440.96 0.44456-10.225-12.67-60.683" fill="#fff" fill-rule="evenodd"/> <path d="m457.01 401.4h32.676l0.66685 7.3353-33.787-0.22229 0.44456-7.113z" fill="#fff" fill-rule="evenodd"/> <path d="m459.24 401.4 0.22228 6.7796" fill="#fff" fill-rule="evenodd"/> <path d="m465.02 402.06 0.11114 6.2239" fill="#fff" fill-rule="evenodd"/> <path d="m474.35 402.28 0.22229 6.6685" fill="#fff" fill-rule="evenodd"/> <path d="m486.13 401.84 0.22229 6.4462" fill="#fff" fill-rule="evenodd"/> <path d="m457.01 405.4h32.898" fill="#fff" fill-rule="evenodd"/> <path d="m461.01 388.73 24.896-0.88913" fill="#fff" fill-rule="evenodd"/> <path d="m461.35 388.61 0.11114 6.7796" fill="#fff" fill-rule="evenodd"/> <path d="m485.24 388.5v7.3353" fill="#fff" fill-rule="evenodd"/> <path d="m480.13 388.06 0.22229 7.4465" fill="#fff" fill-rule="evenodd"/> <path d="m473.02 388.28 0.11114 7.2242" fill="#fff" fill-rule="evenodd"/> <path d="m468.79 388.73 0.22228 6.4462" fill="#fff" fill-rule="evenodd"/> <path d="m461.24 391.17 24.007-0.22228" fill="#fff" fill-rule="evenodd"/> <path d="m485.02 387.17 0.22228-9.5582-2.4451 1.3337-0.44456 2.8897h2.4451l0.66684-4.4456" fill="#fff" fill-rule="evenodd"/> <path d="m438.56 187.56-0.88913-5.7794-0.22229-5.5571c-3.9646 0.11061-6.751 1.3994-6.0016 6.2239l6.6685 0.44457 0.44457 4.6679z" fill="#fff" fill-rule="evenodd"/> <path d="m429.89 188.67 0.22229-12.892-5.1125-6.4462c-5.118 1.6281-6.9593 4.4477-5.5571 8.4467l10.225 0.22228 0.22228 10.67z" fill="#fff" fill-rule="evenodd"/> <path d="m424.78 436.74 0.22229-38.455" fill="#fff" fill-rule="evenodd"/> <path d="m422.11 435.4 1.1114-44.901" fill="#fff" fill-rule="evenodd"/> <path d="m428.34 436.74v-7.3353l-1.3337-20.895" fill="#fff" fill-rule="evenodd"/> <path d="m407.67 373.83 8.2245 51.792" fill="#fff" fill-rule="evenodd"/> <path d="m406.33 432.29 11.781 0.66685" fill="#fff" fill-rule="evenodd"/> <path d="m409.89 434.07-0.22228 2.2228" fill="#fff" fill-rule="evenodd"/> <path d="m413.22 432.96 0.22228 4.0011" fill="#fff" fill-rule="evenodd"/> <path d="m415.89 432.74-0.22228 4.2234" fill="#fff" fill-rule="evenodd"/> <path d="m404.55 432.74h-18.227" fill="#fff" fill-rule="evenodd"/> <path d="m390.11 415.18 15.115-0.66685-0.22229-5.1125-14.671 1.556-0.22228 4.2234z" fill="#fff" fill-rule="evenodd"/> <path d="m390.77 404.29 14.448-1.1114" fill="#fff" fill-rule="evenodd"/> <path d="m390.77 407.18 14.226-0.88913" fill="#fff" fill-rule="evenodd"/> <path d="m391.22 404.06 0.44457 6.6685" fill="#fff" fill-rule="evenodd"/> <path d="m402.33 403.62v5.5571" fill="#fff" fill-rule="evenodd"/> <path d="m397 403.62v5.5571" fill="#fff" fill-rule="evenodd"/> <path d="m393.88 404.06 0.44457 6.0016" fill="#fff" fill-rule="evenodd"/> <path d="m398.55 388.5-0.44457-7.3353 6.6685-9.5582" fill="#fff" fill-rule="evenodd"/> <path d="m390.33 411.18s-3.4454-0.55571-4.4456 2.6674-0.44456 5.5015 0.44457 10.225 3.112 8.669 3.112 8.669" fill="#fff" fill-rule="evenodd"/> <path d="m440.56 422.29-0.22228 16.893" fill="#fff" fill-rule="evenodd"/> <path d="m430.56 422.29c1.3337 0.22229 9.7804-0.44456 9.7804-0.44456" fill="#fff" fill-rule="evenodd"/> <path d="m397 454.08 0.44457 9.5582 40.011-0.22228 0.44457-9.7804-40.9 0.44457z" fill="#fff" fill-rule="evenodd"/> <path d="m405 453.63-0.22228 10.003" fill="#fff" fill-rule="evenodd"/> <path d="m422.11 454.08 0.44457 9.7804" fill="#fff" fill-rule="evenodd"/> <path d="m397.66 457.19h40.233" fill="#fff" fill-rule="evenodd"/> <path d="m397.66 461.19 39.566-0.22228" fill="#fff" fill-rule="evenodd"/> <path d="m510.36 239.35-80.244 174.94" fill="#fff" fill-rule="evenodd"/> <path d="m519.03 238.46-87.746 183.83" fill="#fff" fill-rule="evenodd"/> <path d="m526.59 239.57-85.968 187.22" fill="#fff" fill-rule="evenodd"/> <path d="m510.36 238.68 8.2245-0.44457 8.2245 0.66685" fill="#fff" fill-rule="evenodd"/> <path d="m437.45 414.07 10.225 0.66685" fill="#fff" fill-rule="evenodd"/> <path d="m439.01 408.29 10.225 0.66685" fill="#fff" fill-rule="evenodd"/> <path d="m442.56 402.51 10.225 0.66685" fill="#fff" fill-rule="evenodd"/> <path d="m446.12 396.28 10.225 0.66685" fill="#fff" fill-rule="evenodd"/> <path d="m448.57 389.61 10.225 0.66685" fill="#fff" fill-rule="evenodd"/> <path d="m449.23 386.28 10.225 0.66685" fill="#fff" fill-rule="evenodd"/> <path d="m451.46 381.61 10.225 0.66685" fill="#fff" fill-rule="evenodd"/> <path d="m453.46 376.5 10.225 0.66685" fill="#fff" fill-rule="evenodd"/> <path d="m456.12 372.28 10.225 0.66685" fill="#fff" fill-rule="evenodd"/> <path d="m459.01 366.28 10.225 0.66685" fill="#fff" fill-rule="evenodd"/> <path d="m460.57 360.94 10.225 0.66685" fill="#fff" fill-rule="evenodd"/> <path d="m463.01 356.49 10.225 0.66685" fill="#fff" fill-rule="evenodd"/> <path d="m464.79 352.94 10.225 0.66685" fill="#fff" fill-rule="evenodd"/> <path d="m467.24 348.05 10.225 0.66685" fill="#fff" fill-rule="evenodd"/> <path d="m469.91 342.49 10.225 0.66685" fill="#fff" fill-rule="evenodd"/> <path d="m472.13 337.6 10.225 0.66685" fill="#fff" fill-rule="evenodd"/> <path d="m474.13 332.71 10.225 0.66685" fill="#fff" fill-rule="evenodd"/> <path d="m476.35 328.49 10.225 0.66685" fill="#fff" fill-rule="evenodd"/> <path d="m478.57 323.6 10.225 0.66685" fill="#fff" fill-rule="evenodd"/> <path d="m480.35 318.93 10.225 0.66685" fill="#fff" fill-rule="evenodd"/> <path d="m483.69 314.71 10.225 0.66685" fill="#fff" fill-rule="evenodd"/> <path d="m484.8 309.59 10.225 0.66685" fill="#fff" fill-rule="evenodd"/> <path d="m488.35 299.81 10.225 0.66685" fill="#fff" fill-rule="evenodd"/> <path d="m486.8 306.04 10.225 0.66685" fill="#fff" fill-rule="evenodd"/> <path d="m493.91 289.59 10.225 0.66685" fill="#fff" fill-rule="evenodd"/> <path d="m492.58 294.26 10.225 0.66685" fill="#fff" fill-rule="evenodd"/> <path d="m495.91 285.81 10.225 0.66685" fill="#fff" fill-rule="evenodd"/> <path d="m497.91 281.36 10.225 0.66685" fill="#fff" fill-rule="evenodd"/> <path d="m500.58 277.14 10.225 0.66685" fill="#fff" fill-rule="evenodd"/> <path d="m501.69 272.69 10.225 0.66685" fill="#fff" fill-rule="evenodd"/> <path d="m504.8 267.14 10.225 0.66685" fill="#fff" fill-rule="evenodd"/> <path d="m507.47 260.69 10.225 0.66685" fill="#fff" fill-rule="evenodd"/> <path d="m509.69 254.69 10.225 0.66685" fill="#fff" fill-rule="evenodd"/> <path d="m512.36 248.47 10.225 0.66685" fill="#fff" fill-rule="evenodd"/> <path d="m515.7 242.69 10.225 0.66685" fill="#fff" fill-rule="evenodd"/> <path d="m515.63 242.74 7.6825 6.7804" fill="#fff" fill-rule="evenodd"/> <path d="m512.3 248.08 7.6825 6.7804" fill="#fff" fill-rule="evenodd"/> <path d="m510.3 254.97 7.6825 6.7804" fill="#fff" fill-rule="evenodd"/> <path d="m507.19 260.75 7.6825 6.7804" fill="#fff" fill-rule="evenodd"/> <path d="m505.41 266.97 7.6825 6.7804" fill="#fff" fill-rule="evenodd"/> <path d="m502.07 271.64 7.6825 6.7804" fill="#fff" fill-rule="evenodd"/> <path d="m500.74 276.53 7.6825 6.7804" fill="#fff" fill-rule="evenodd"/> <path d="m498.74 280.08 7.6825 6.7804" fill="#fff" fill-rule="evenodd"/> <path d="m496.52 284.53 7.6825 6.7804" fill="#fff" fill-rule="evenodd"/> <path d="m494.07 288.98 7.6825 6.7804" fill="#fff" fill-rule="evenodd"/> <path d="m492.07 294.09 7.6825 6.7804" fill="#fff" fill-rule="evenodd"/> <path d="m487.85 301.2 7.6825 6.7804" fill="#fff" fill-rule="evenodd"/> <path d="m486.29 304.98 7.6825 6.7804" fill="#fff" fill-rule="evenodd"/> <path d="m484.51 309.43 7.6825 6.7804" fill="#fff" fill-rule="evenodd"/> <path d="m481.62 314.32 7.6825 6.7804" fill="#fff" fill-rule="evenodd"/> <path d="m478.96 319.21 7.6825 6.7804" fill="#fff" fill-rule="evenodd"/> <path d="m475.62 326.76 7.6825 6.7804" fill="#fff" fill-rule="evenodd"/> <path d="m473.4 333.21 7.6825 6.7804" fill="#fff" fill-rule="evenodd"/> <path d="m471.18 338.54 7.6825 6.7804" fill="#fff" fill-rule="evenodd"/> <path d="m468.51 344.1 7.6825 6.7804" fill="#fff" fill-rule="evenodd"/> <path d="m466.29 349.88 7.6825 6.7804" fill="#fff" fill-rule="evenodd"/> <path d="m464.06 354.99 7.6825 6.7804" fill="#fff" fill-rule="evenodd"/> <path d="m461.84 358.55 7.6825 6.7804" fill="#fff" fill-rule="evenodd"/> <path d="m459.17 364.33 7.6825 6.7804" fill="#fff" fill-rule="evenodd"/> <path d="m456.51 369.44 7.6825 6.7804" fill="#fff" fill-rule="evenodd"/> <path d="m453.62 377 7.6825 6.7804" fill="#fff" fill-rule="evenodd"/> <path d="m451.39 383.89 7.6825 6.7804" fill="#fff" fill-rule="evenodd"/> <path d="m448.95 389.67 7.6825 6.7804" fill="#fff" fill-rule="evenodd"/> <path d="m446.5 395 7.6825 6.7804" fill="#fff" fill-rule="evenodd"/> <path d="m443.39 400.12 7.6825 6.7804" fill="#fff" fill-rule="evenodd"/> <path d="m441.39 404.34 7.6825 6.7804" fill="#fff" fill-rule="evenodd"/> <path d="m438.06 409.45 7.6825 6.7804" fill="#fff" fill-rule="evenodd"/> <path d="m507.47 243.58 10.224-0.67775" fill="#fff" fill-rule="evenodd"/> <path d="m505.69 249.36 10.224-0.67775" fill="#fff" fill-rule="evenodd"/> <path d="m503.03 256.03 10.224-0.67775" fill="#fff" fill-rule="evenodd"/> <path d="m500.36 261.36 10.224-0.67775" fill="#fff" fill-rule="evenodd"/> <path d="m497.02 268.03 10.224-0.67775" fill="#fff" fill-rule="evenodd"/> <path d="m495.69 272.25 10.224-0.67775" fill="#fff" fill-rule="evenodd"/> <path d="m493.02 277.59 10.224-0.67775" fill="#fff" fill-rule="evenodd"/> <path d="m488.8 286.7 10.224-0.67775" fill="#fff" fill-rule="evenodd"/> <path d="m485.69 293.15 10.224-0.67775" fill="#fff" fill-rule="evenodd"/> <path d="m481.91 301.82 10.224-0.67775" fill="#fff" fill-rule="evenodd"/> <path d="m478.57 310.04 10.224-0.67775" fill="#fff" fill-rule="evenodd"/> <path d="m472.8 319.6 10.224-0.67775" fill="#fff" fill-rule="evenodd"/> <path d="m469.02 326.71 10.224-0.67775" fill="#fff" fill-rule="evenodd"/> <path d="m466.57 333.38 10.224-0.67775" fill="#fff" fill-rule="evenodd"/> <path d="m464.79 337.61 10.224-0.67775" fill="#fff" fill-rule="evenodd"/> <path d="m461.9 343.61 10.224-0.67775" fill="#fff" fill-rule="evenodd"/> <path d="m458.57 350.5 10.224-0.67775" fill="#fff" fill-rule="evenodd"/> <path d="m454.35 360.06 10.224-0.67775" fill="#fff" fill-rule="evenodd"/> <path d="m450.79 367.39 10.224-0.67775" fill="#fff" fill-rule="evenodd"/> <path d="m446.12 376.28 10.224-0.67775" fill="#fff" fill-rule="evenodd"/> <path d="m444.34 380.73 10.224-0.67775" fill="#fff" fill-rule="evenodd"/> <path d="m441.01 387.84 10.224-0.67775" fill="#fff" fill-rule="evenodd"/> <path d="m437.9 395.18 10.224-0.67775" fill="#fff" fill-rule="evenodd"/> <path d="m436.34 400.29 10.224-0.67775" fill="#fff" fill-rule="evenodd"/> <path d="m432.78 406.96 10.224-0.67775" fill="#fff" fill-rule="evenodd"/> <path d="m429.23 414.07 10.224-0.67775" fill="#fff" fill-rule="evenodd"/> <path d="m506.14 247.58-94.915 114.92" fill="#fff" fill-rule="evenodd"/> <path d="m502.14 265.58-86.023 96.471" fill="#fff" fill-rule="evenodd"/> <path d="m523.25 248.91-0.44457 35.788" fill="#fff" fill-rule="evenodd"/> <path d="m515.92 264.03c-0.22228 2.6674 0 21.117 0 21.117" fill="#fff" fill-rule="evenodd"/> <path d="m513.7 270.03 0.44457 15.337" fill="#fff" fill-rule="evenodd"/> <path d="m516.14 288.7a1.2226 2.8897 0 1 1-2.4451 0 1.2226 2.8897 0 1 1 2.4451 0z" fill="#fff" stroke-width="1.7"/> <path d="m515.92 293.92a0.33342 1.6671 0 1 1-0.66685 0 0.33342 1.6671 0 1 1 0.66685 0z" fill="#fff" stroke-width="1.7"/> <path d="m523.03 287.14a0.33342 1.556 0 1 1-0.66684 0 0.33342 1.556 0 1 1 0.66684 0z" fill="#fff" stroke-width="1.7"/> <path d="m404.94 466.91-0.11114 22.006" fill="#fff" fill-rule="evenodd"/> <path d="m407.22 466.86-0.11114 22.006" fill="#fff" fill-rule="evenodd"/> <path d="m428.73 466.8-0.11114 22.006" fill="#fff" fill-rule="evenodd"/> <path d="m431.73 466.64-0.11114 22.006" fill="#fff" fill-rule="evenodd"/> <path d="m434.28 490.2 15.615-29.786" fill="#fff" fill-rule="evenodd"/> <path d="m448.51 464.52c0 0.22228 4.6679 25.951 4.6679 25.951" fill="#fff" fill-rule="evenodd"/> <path d="m460.12 489.81 4.4456-28.952" fill="#fff" fill-rule="evenodd"/> <path d="m464.96 463.25 10.558 21.061" fill="#fff" fill-rule="evenodd"/> <path d="m478.52 461.58c-0.05557 0.22229-2.0005 20.617-2.0005 20.617" fill="#fff" fill-rule="evenodd"/> <path d="m479.85 461.91c0 0.27785 0.66685 19.616 0.66685 19.616" fill="#fff" fill-rule="evenodd"/> <path d="m494.02 473.08s-3.112 2.2228-3.3898 2.1672-2.3618-2.9591-5.0569-2.7785-2.9591 2.5701-5.7238 3.501-5.3348 0.22228-5.3348 0.22228" fill="#fff" fill-rule="evenodd"/> <path d="m436.56 484.97 70.686-0.88914" fill="#fff" fill-rule="evenodd"/> <path d="m499.47 484.53 0.22228 5.3348" fill="#fff" fill-rule="evenodd"/> <path d="m493.69 484.08 0.22228 5.3348" fill="#fff" fill-rule="evenodd"/> <path d="m486.13 483.86 0.22228 5.3348" fill="#fff" fill-rule="evenodd"/> <path d="m479.24 483.64 0.22228 5.3348" fill="#fff" fill-rule="evenodd"/> <path d="m473.91 484.08 0.22228 5.3348" fill="#fff" fill-rule="evenodd"/> <path d="m467.24 484.31 0.22228 5.3348" fill="#fff" fill-rule="evenodd"/> <path d="m460.79 484.97 0.22228 5.3348" fill="#fff" fill-rule="evenodd"/> <path d="m454.12 484.75 0.22228 5.3348" fill="#fff" fill-rule="evenodd"/> <path d="m447.45 485.42 0.22228 5.3348" fill="#fff" fill-rule="evenodd"/> <path d="m441.45 485.2 0.22228 5.3348" fill="#fff" fill-rule="evenodd"/> <path d="m437.23 485.2 0.22228 5.3348" fill="#fff" fill-rule="evenodd"/> <path d="m505.92 487.2-68.908 0.66685" fill="#fff" fill-rule="evenodd"/> <path d="m521.03 499.64 199.17-228.95" fill="#fff" fill-rule="evenodd"/> <path d="m717.97 266.69-201.83 228.06" fill="#fff" fill-rule="evenodd"/> <path d="m719.75 267.58-201.83 228.06" fill="#fff" fill-rule="evenodd"/> <path d="m720.64 269.8-201.83 228.06" fill="#fff" fill-rule="evenodd"/> <path d="m729.53 272.92c-2.2228 1.3337-35.565 40.9-35.565 40.9l-151.6 221.84" fill="#fff" fill-rule="evenodd"/> <path d="m708.64 300.03-132.48 246.29-33.342 16.004" fill="none"/> <path d="m684.63 289.81 4.4457 5.7794" fill="#fff" fill-rule="evenodd"/> <path d="m689.08 289.81 3.5565 4.4457" fill="#fff" fill-rule="evenodd"/> <path d="m682.41 281.81 24.451-2.6674" fill="#fff" fill-rule="evenodd"/> <path d="m732.2 279.64-0.44456 7.5576" fill="#fff" fill-rule="evenodd"/> <path d="m724.14 279.47-0.44456 7.5576" fill="#fff" fill-rule="evenodd"/> <path d="m712.19 279.31-0.44456 7.5576" fill="#fff" fill-rule="evenodd"/> <path d="m707.03 278.97-0.44456 7.5576" fill="#fff" fill-rule="evenodd"/> <path d="m706.86 279.58 25.34 0.44457" fill="#fff" fill-rule="evenodd"/> <path d="m683.8 289.64 21.728-2.723 26.507 0.50014-18.672 3.2787-29.564-1.0558z" fill="#fff" fill-rule="evenodd"/> <path d="m683.13 281.59 6.1683 7.2798" fill="#fff" fill-rule="evenodd"/> <path d="m696.58 280.53-0.22229 7.7243" fill="#fff" fill-rule="evenodd"/> <path d="m690.02 281.36-0.22229 7.7243" fill="#fff" fill-rule="evenodd"/> <path d="m683.69 282.42-0.22229 7.7243" fill="#fff" fill-rule="evenodd"/> <path d="m701.75 279.53-0.22229 7.7243" fill="#fff" fill-rule="evenodd"/> <path d="m683.8 283.75c0.22229 0.05557 22.951-2.723 22.951-2.723" fill="#fff" fill-rule="evenodd"/> <path d="m683.91 285.7c0.22229 0.05557 22.951-2.723 22.951-2.723" fill="#fff" fill-rule="evenodd"/> <path d="m683.74 287.75c0.22229 0.05557 22.951-2.723 22.951-2.723" fill="#fff" fill-rule="evenodd"/> <path d="m732.2 281.92c-0.33342 0.16671-25.34-0.44457-25.34-0.44457" fill="#fff" fill-rule="evenodd"/> <path d="m731.98 283.86c-0.33342 0.16671-25.34-0.44457-25.34-0.44457" fill="#fff" fill-rule="evenodd"/> <path d="m731.81 285.48c-0.33342 0.16671-25.34-0.44457-25.34-0.44457" fill="#fff" fill-rule="evenodd"/> <path d="m702.74 292.29-0.47153 18.704-22.005 5.8156 3.6151 28.135-35.836 8.9591 6.2871 46.21-51.711 6.2871 17.447 58.627" fill="#fff" fill-rule="evenodd"/> <path d="m617.86 468.64-67.901-1.4146" fill="#fff" fill-rule="evenodd"/> <path d="m549.18 469.11c0.31436 1.5718 26.406 77.646 26.406 77.646" fill="#fff" fill-rule="evenodd"/> <path d="m550.59 468.33 47.782 37.094" fill="#fff" fill-rule="evenodd"/> <path d="m576.84 435.79c1.1002 0.47153 41.966 30.335 41.966 30.335" fill="#fff" fill-rule="evenodd"/> <path d="m603.4 407.19c3.3007 2.8292 32.536 25.62 32.536 25.62" fill="#fff" fill-rule="evenodd"/> <path d="m667.22 333.94 16.661 11.002" fill="#fff" fill-rule="evenodd"/> <path d="m693.62 301.72 8.4876 9.2735" fill="#fff" fill-rule="evenodd"/> <path d="m728.83 265.88c-1.2574 1.729-5.9728 7.5445-5.9728 7.5445l-6.6014 1.8861-2.9864 3.7723" fill="#fff" fill-rule="evenodd"/> <path d="m549.65 525.54 30.178 24.205" fill="#fff" fill-rule="evenodd"/> <path d="m543.21 544.09c1.4146 0.15718 31.278 2.0433 31.278 2.0433" fill="#fff" fill-rule="evenodd"/> <path d="m543.52 540.16 52.34-32.064" fill="#fff" fill-rule="evenodd"/> <path d="m589.26 468.8 9.745 33.95" fill="#fff" fill-rule="evenodd"/> <path d="m590.83 464.87 44.324-29.392" fill="#fff" fill-rule="evenodd"/> <path d="m633.27 403.88c0.15718 0.94306 4.401 27.192 4.401 27.192" fill="#fff" fill-rule="evenodd"/> <path d="m613.15 434.38 21.69-0.31435" fill="#fff" fill-rule="evenodd"/> <path d="m600.26 411.43-9.5878 53.755" fill="#fff" fill-rule="evenodd"/> <path d="m577.78 437.05 12.26 29.392" fill="#fff" fill-rule="evenodd"/> <path d="m626.67 379.84c0.47154 1.729 7.5445 21.69 7.5445 21.69" fill="#fff" fill-rule="evenodd"/> <path d="m645.37 358.46-10.374 41.966" fill="#fff" fill-rule="evenodd"/> <path d="m628.08 379.68 25.62 20.119" fill="#fff" fill-rule="evenodd"/> <path d="m667.53 373.86-31.907 27.506" fill="#fff" fill-rule="evenodd"/> <path d="m648.67 356.26c0.31435 0.94306 5.8156 15.561 5.8156 15.561" fill="#fff" fill-rule="evenodd"/> <path d="m655.43 372.45c0.31436 0.62871 13.36-0.15718 13.36-0.15718" fill="#fff" fill-rule="evenodd"/> <path d="m648.83 355.47c0.47153 0.94306 21.062 15.875 21.062 15.875" fill="#fff" fill-rule="evenodd"/> <path d="m671.31 348.72c0 1.4146-0.94306 21.69-0.94306 21.69" fill="#fff" fill-rule="evenodd"/> <path d="m673.19 345.41 18.704-15.089" fill="#fff" fill-rule="evenodd"/> <path d="m667.22 334.26c0.15718 0.78589 4.8725 12.26 4.8725 12.26" fill="#fff" fill-rule="evenodd"/> <path d="m680.26 318.38c-0.31435 1.1002-7.5445 28.449-7.5445 28.449" fill="#fff" fill-rule="evenodd"/> <path d="m681.36 319.01c0 1.4146 3.4579 9.4306 3.4579 9.4306l8.8019-1.4146" fill="#fff" fill-rule="evenodd"/> <path d="m694.72 313.19c0 1.1002-0.47154 12.731-0.47154 12.731" fill="#fff" fill-rule="evenodd"/> <path d="m693.62 302.51c0.31436 1.729 2.8292 9.745 2.8292 9.745" fill="#fff" fill-rule="evenodd"/> <path d="m702.43 293.39c-0.15718 0.78589-3.9294 13.36-3.9294 13.36" fill="#fff" fill-rule="evenodd"/> <path d="m709.34 291.19-15.246 23.419" fill="#fff" fill-rule="evenodd"/> <path d="m565.52 504.95 31.907 0.62871" fill="#fff" fill-rule="evenodd"/> <path d="m546.98 470.53c0 0.62871-4.0866 37.094-4.0866 37.094" fill="#fff" fill-rule="evenodd"/> <path d="m259.03 424.48c2.5148 0.62871 34.893 0.62872 34.893 0.62872l0.62871 23.262-34.972 0.31435-0.55013-24.205z" fill="#fff" fill-rule="evenodd"/> <path d="m333.53 423.22v23.577" fill="#fff" fill-rule="evenodd"/> <path d="m350.82 422.27v24.52" fill="#fff" fill-rule="evenodd"/> <path d="m310.58 424.79 0.94306 23.577" fill="#fff" fill-rule="evenodd"/> <path d="m218.85 418.31-0.30248 4.187 7.937-0.17748 0.67749-4.312-8.312 0.30249z" fill="#fff" fill-rule="evenodd"/> <path d="m215.67 418.92 3.3273-0.90745-0.10496 4.1245-3.3473 0.66746 0.125-3.8845z" fill="#fff" fill-rule="evenodd"/> <path d="m226.5 422.25 17.679 0.16746-0.01002-4.2071-17.646-0.14742-0.02243 4.187z" fill="#fff" fill-rule="evenodd"/> <path d="m244.11114,426.32663c.0625-.375.01386-3.95163.01386-3.95163s-25.5625-.5-25.5-.25-.3125,3.75.0625,3.75 25.42364.51413 25.42364.45163z" fill="#fff" fill-rule="evenodd"/> <path d="m218.9375,425.8125c-.0625-.25-.125-3.8125-.125-3.8125l-3.375.75-.0625,3.3125 3.5625-.25z" fill="#fff" fill-rule="evenodd"/> <path d="m534.4 536.7-18.547 20.119" fill="#fff" fill-rule="evenodd"/> <path d="m534.23 540.06-18.547 20.119" fill="#fff" fill-rule="evenodd"/> <path d="m533.52 543.77-18.547 20.119" fill="#fff" fill-rule="evenodd"/> <path d="m534.4 545.89-18.547 20.119" fill="#fff" fill-rule="evenodd"/> <path d="m501.34 556.37 14.496 0.17677" fill="#fff" fill-rule="evenodd"/> <path d="m501.52 559.2 14.496 0.17677" fill="#fff" fill-rule="evenodd"/> <path d="m501.52 562.73 14.496 0.17677" fill="#fff" fill-rule="evenodd"/> <path d="m501.16 565.74 14.496 0.17677" fill="#fff" fill-rule="evenodd"/> <path d="m501.16 565.56 14.496 0.17677" fill="#fff" fill-rule="evenodd"/> <path d="m500.99 556.19v9.7227" fill="#fff" fill-rule="evenodd"/> <path d="m515.66 556.37 0.17678 9.3692" fill="#fff" fill-rule="evenodd"/> <path d="m533.87 536.74-0.17678 10.43" fill="#fff" fill-rule="evenodd"/> <path d="m318.11 418.5-18.547 20.119" fill="#fff" fill-rule="evenodd"/> <path d="m317.94 421.86-18.547 20.119" fill="#fff" fill-rule="evenodd"/> <path d="m317.23 425.57-18.547 20.119" fill="#fff" fill-rule="evenodd"/> <path d="m318.11 427.69-18.547 20.119" fill="#fff" fill-rule="evenodd"/> <path d="m285.05 438.16 14.496 0.17677" fill="#fff" fill-rule="evenodd"/> <path d="m285.05 438.16 14.496 0.17677" fill="#fff" fill-rule="evenodd"/> <path d="m317.79 418.9 31.752 0.17677" fill="#fff" fill-rule="evenodd"/> <path d="m352.29 497.9 31.752 0.17677" fill="#fff" fill-rule="evenodd"/> <path d="m285.23 440.99 14.496 0.17677" fill="#fff" fill-rule="evenodd"/> <path d="m285.23 440.99 14.496 0.17677" fill="#fff" fill-rule="evenodd"/> <path d="m318.17 421.72 31.752 0.17677" fill="#fff" fill-rule="evenodd"/> <path d="m352.67 500.72 31.752 0.17677" fill="#fff" fill-rule="evenodd"/> <path d="m285.23 444.53 14.496 0.17677" fill="#fff" fill-rule="evenodd"/> <path d="m285.23 444.53 14.496 0.17677" fill="#fff" fill-rule="evenodd"/> <path d="m318.17 425.26 31.752 0.17677" fill="#fff" fill-rule="evenodd"/> <path d="m352.67 504.26 31.752 0.17677" fill="#fff" fill-rule="evenodd"/> <path d="m284.87 447.53 14.496 0.17677" fill="#fff" fill-rule="evenodd"/> <path d="m284.87 447.53 14.496 0.17677" fill="#fff" fill-rule="evenodd"/> <path d="m317.4 428.27 31.752 0.17677" fill="#fff" fill-rule="evenodd"/> <path d="m351.9 507.27 31.752 0.17677" fill="#fff" fill-rule="evenodd"/> <path d="m284.87 447.36 14.496 0.17677" fill="#fff" fill-rule="evenodd"/> <path d="m284.87 447.36 14.496 0.17677" fill="#fff" fill-rule="evenodd"/> <path d="m317.4 428.09 31.752 0.17677" fill="#fff" fill-rule="evenodd"/> <path d="m351.9 507.09 31.752 0.17677" fill="#fff" fill-rule="evenodd"/> <path d="m284.7 437.99v9.7227" fill="#fff" fill-rule="evenodd"/> <path d="m299.37 438.16 0.17678 9.3692" fill="#fff" fill-rule="evenodd"/> <path d="m299.37 438.16 0.17678 9.3692" fill="#fff" fill-rule="evenodd"/> <path d="m349.15 418.9 0.38723 9.3692" fill="#fff" fill-rule="evenodd"/> <path d="m383.65 497.9 0.38723 9.3692" fill="#fff" fill-rule="evenodd"/> <path d="m317.58 418.54-0.17678 10.43" fill="#fff" fill-rule="evenodd"/> <path d="m352.08 497.54-0.17678 10.43" fill="#fff" fill-rule="evenodd"/> <path d="m534.12 537.27 6.385 0.17677" fill="#fff" fill-rule="evenodd"/> <path d="m534.2 540.1 6.385 0.17677" fill="#fff" fill-rule="evenodd"/> <path d="m534.2 543.64 6.385 0.17677" fill="#fff" fill-rule="evenodd"/> <path d="m534.04 546.64 6.385 0.17677" fill="#fff" fill-rule="evenodd"/> <path d="m534.04 546.47 6.385 0.17677" fill="#fff" fill-rule="evenodd"/> <path d="m540.43 537.27 0.07787 9.3692" fill="#fff" fill-rule="evenodd"/> <path d="m540.77 586.35-24.027 26.039" fill="#fff" fill-rule="evenodd"/> <path d="m540.59 589.71-24.027 26.039" fill="#fff" fill-rule="evenodd"/> <path d="m540.77 592.46-24.911 26.994" fill="#fff" fill-rule="evenodd"/> <path d="m540.94 595.35-24.204 26.23" fill="#fff" fill-rule="evenodd"/> <path d="m502.22 611.94 14.496 0.17677" fill="#fff" fill-rule="evenodd"/> <path d="m502.4 614.76 14.496 0.17677" fill="#fff" fill-rule="evenodd"/> <path d="m502.4 618.3 14.496 0.17677" fill="#fff" fill-rule="evenodd"/> <path d="m502.05 621.31 14.496 0.17677" fill="#fff" fill-rule="evenodd"/> <path d="m502.05 621.13 14.496 0.17677" fill="#fff" fill-rule="evenodd"/> <path d="m501.87 611.76v9.7227" fill="#fff" fill-rule="evenodd"/> <path d="m516.54 611.94 0.17678 9.3692" fill="#fff" fill-rule="evenodd"/> <path d="m541.29 585.77-0.17678 10.43" fill="#fff" fill-rule="evenodd"/> <path d="m541.54 586.3 6.385 0.17677" fill="#fff" fill-rule="evenodd"/> <path d="m541.62 589.13 6.385 0.17677" fill="#fff" fill-rule="evenodd"/> <path d="m541.62 592.67 6.385 0.17677" fill="#fff" fill-rule="evenodd"/> <path d="m541.47 595.67 6.385 0.17677" fill="#fff" fill-rule="evenodd"/> <path d="m541.47 595.5 6.385 0.17677" fill="#fff" fill-rule="evenodd"/> <path d="m547.85 586.3 0.07787 9.3692" fill="#fff" fill-rule="evenodd"/> <path d="m500.14 500.06 34.278 0.17677" fill="#fff" fill-rule="evenodd"/> <path d="m500.56 502.89 34.278 0.17677" fill="#fff" fill-rule="evenodd"/> <path d="m500.56 506.43 34.278 0.17677" fill="#fff" fill-rule="evenodd"/> <path d="m499.72 509.43 34.278 0.17677" fill="#fff" fill-rule="evenodd"/> <path d="m499.72 509.26 34.278 0.17677" fill="#fff" fill-rule="evenodd"/> <path d="m499.31 499.89v9.7227" fill="#fff" fill-rule="evenodd"/> <path d="m534 500.06 0.41803 9.3692" fill="#fff" fill-rule="evenodd"/> <path d="m288 561.27 213.05-5.0921" fill="#fff" fill-rule="evenodd"/> <path d="m288.46 565.01 211.73-5.8876" fill="#fff" fill-rule="evenodd"/> <path d="m288.64 568.01 211.55-5.3573" fill="#fff" fill-rule="evenodd"/> <path d="m290.9 570.7 204.3-4.9153" fill="#fff" fill-rule="evenodd"/> <path d="m288.6 570.35 210.84-4.9153" fill="#fff" fill-rule="evenodd"/> <path d="m288.41 561.22v9.7227" fill="#fff" fill-rule="evenodd"/> <path d="m497.68 556.95 0.0167 8.6" fill="#fff" fill-rule="evenodd"/> <path d="m479.12 557.65 0.0167 8.6" fill="#fff" fill-rule="evenodd"/> <path d="m431.39 558.18 0.0167 8.6" fill="#fff" fill-rule="evenodd"/> <path d="m461.62 557.83 0.0167 8.6" fill="#fff" fill-rule="evenodd"/> <path d="m418.66 557.48 0.0167 8.6" fill="#fff" fill-rule="evenodd"/> <path d="m405.76 559.07 0.0167 8.6" fill="#fff" fill-rule="evenodd"/> <path d="m393.91 558.71 0.0167 8.6" fill="#fff" fill-rule="evenodd"/> <path d="m378.18 560.13 0.0167 8.6" fill="#fff" fill-rule="evenodd"/> <path d="m356.26 560.3 0.0167 8.6" fill="#fff" fill-rule="evenodd"/> <path d="m166.75 507.98 0.0167 47.844" fill="#fff" fill-rule="evenodd"/> <path d="m167.11 562.78 0.0167 47.844" fill="#fff" fill-rule="evenodd"/> <path d="m147.57 557.04 0.0167 47.844" fill="#fff" fill-rule="evenodd"/> <path d="m196.1 567.38 0.0167 47.844" fill="#fff" fill-rule="evenodd"/> <path d="m183.73 565.96 0.0167 47.844" fill="#fff" fill-rule="evenodd"/> <path d="m209.18 567.73 0.0167 47.844" fill="#fff" fill-rule="evenodd"/> <path d="m256.2 583.99 0.0167 47.844" fill="#fff" fill-rule="evenodd"/> <path d="m256.2 583.99 0.0167 47.844" fill="#fff" fill-rule="evenodd"/> <path d="m294.92 561.19 0.0167 8.6" fill="#fff" fill-rule="evenodd"/> <path d="m379.95 622.35 0.0167 8.5996" fill="#fff" fill-rule="evenodd"/> <path d="m379.95 622.35 0.0167 8.5996" fill="#fff" fill-rule="evenodd"/> <path d="m211.04 569.94 0.0167 11.782" fill="#fff" fill-rule="evenodd"/> <path d="m215.46 570.29 0.0167 11.782" fill="#fff" fill-rule="evenodd"/> <path d="m218.46 570.82 0.0167 11.782" fill="#fff" fill-rule="evenodd"/> <path d="m221.64 571.88 0.0167 11.782" fill="#fff" fill-rule="evenodd"/> <path d="m224.65 572.06 0.0167 11.782" fill="#fff" fill-rule="evenodd"/> <path d="m233.66 573.3 0.0167 11.782" fill="#fff" fill-rule="evenodd"/> <path d="m238.97 574.01 0.0167 11.782" fill="#fff" fill-rule="evenodd"/> <path d="m253.82 574.01 0.0167 11.782" fill="#fff" fill-rule="evenodd"/> <path d="m272.03 573.3 0.0167 11.782" fill="#fff" fill-rule="evenodd"/> <path d="m295.36 575.24 0.0167 11.782" fill="#fff" fill-rule="evenodd"/> <path d="m308.26 575.6 0.0167 11.782" fill="#fff" fill-rule="evenodd"/> <path d="m314.1 575.95 0.0167 11.782" fill="#fff" fill-rule="evenodd"/> <path d="m320.29 574.89 0.0167 11.782" fill="#fff" fill-rule="evenodd"/> <path d="m329.83 575.42 0.0167 11.782" fill="#fff" fill-rule="evenodd"/> <path d="m339.2 574.54 0.0167 11.782" fill="#fff" fill-rule="evenodd"/> <path d="m345.39 574.54 0.0167 11.782" fill="#fff" fill-rule="evenodd"/> <path d="m361.47 622.62 0.0167 8.5996" fill="#fff" fill-rule="evenodd"/> <path d="m298.1 626.22 0.0167 8.5996" fill="#fff" fill-rule="evenodd"/> <path d="m301.99 625.96 0.0167 8.5996" fill="#fff" fill-rule="evenodd"/> <path d="m306.58 625.17 0.0167 8.5996" fill="#fff" fill-rule="evenodd"/> <path d="m456.49 618.06 0.0167 8.5996" fill="#fff" fill-rule="evenodd"/> <path d="m445.88 618.97 0.0167 8.5996" fill="#fff" fill-rule="evenodd"/> <path d="m445.88 618.97 0.0167 8.5996" fill="#fff" fill-rule="evenodd"/> <path d="m286.98 626.33 212.88-9.688" fill="#fff" fill-rule="evenodd"/> <path d="m287.26 631.66 211.55-9.3975" fill="#fff" fill-rule="evenodd"/> <path d="m286.73 629.01 211.55-9.3975" fill="#fff" fill-rule="evenodd"/> <path d="m287.23 634.17 210.84-8.9421" fill="#fff" fill-rule="evenodd"/> <path d="m143.37 597.56 143.19 28.638" fill="#fff" fill-rule="evenodd"/> <path d="m134.88 544.84 68.865 12.39" fill="#fff" fill-rule="evenodd"/> <path d="m143.72 497.78 68.865 4.0257" fill="#fff" fill-rule="evenodd"/> <path d="m286.91 629.02c-0.70711 0-143.54-28.991-143.54-28.991" fill="#fff" fill-rule="evenodd"/> <path d="m203.92 559.56c-0.34007 0.05679-69.035-12.657-69.035-12.657" fill="#fff" fill-rule="evenodd"/> <path d="m212.75 504.12c-0.34007 0.09809-69.035-4.2716-69.035-4.2716" fill="#fff" fill-rule="evenodd"/> <path d="m287.09 631.5-143.72-29.168" fill="#fff" fill-rule="evenodd"/> <path d="m204 561.61-69.12-12.79" fill="#fff" fill-rule="evenodd"/> <path d="m212.84 506.16-69.12-4.3945" fill="#fff" fill-rule="evenodd"/> <path d="m286.91 633.79c-3.3588 0.88388-143.19-29.345-143.19-29.345" fill="#fff" fill-rule="evenodd"/> <path d="m203.92 563.54c-1.6153 1.0071-68.865-12.98-68.865-12.98" fill="#fff" fill-rule="evenodd"/> <path d="m212.75 508.1c-1.6153 1.2033-68.865-4.6156-68.865-4.6156" fill="#fff" fill-rule="evenodd"/> <path d="m186.55 508.17c0.19905 1.5718 20.749 50.069 20.749 50.069" fill="#fff" fill-rule="evenodd" stroke-width="2.4"/> <path d="m205.29 510.73 0.07916 56.426 34.822 5.2257-1.4142-58.549-33.487-3.1032z" fill="#fff" fill-rule="evenodd"/> <path d="m173.82 445.65 0.07916 56.422 34.822 3.1681-1.4142-58.465-33.487-1.1245z" fill="#fff" fill-rule="evenodd"/> <path d="m240.68 514.83 0.14702 56.493 23.621-0.8991-0.25553-54.822-23.512-0.77268z" fill="#fff" fill-rule="evenodd"/> <path d="m209.18 580.37 27.996 3.9748" fill="#fff" fill-rule="evenodd"/> <path d="m273.53 584.08 23.223 2.207" fill="#fff" fill-rule="evenodd"/> <path d="m240.12 584.25 32.946 0.79277" fill="#fff" fill-rule="evenodd"/> <path d="m296.69 586.02 49.563-0.79822" fill="#fff" fill-rule="evenodd"/> <path d="m453.49 512.06c0.31436 1.5718 32.77 50.069 32.77 50.069" fill="#fff" fill-rule="evenodd" stroke-width="2.4"/> <path d="m454.9 569.69c0.31436 1.5718 32.77 50.069 32.77 50.069" fill="#fff" fill-rule="evenodd" stroke-width="2.4"/> <path d="m382.75 570.94c0.31436 1.5718 35.27 53.069 35.27 53.069" fill="#fff" fill-rule="evenodd" stroke-width="2.4"/> <path d="m382.13 511.95c0.31436 1.5718 33.77 54.069 33.77 54.069" fill="#fff" fill-rule="evenodd" stroke-width="2.4"/> <path d="m311.71 576.06c0.31436 1.5718 32.77 50.069 32.77 50.069" fill="#fff" fill-rule="evenodd" stroke-width="2.4"/> <path d="m285.55 516.31c0.31436 1.5718 32.77 50.069 32.77 50.069" fill="#fff" fill-rule="evenodd" stroke-width="2.4"/> <path d="m382.96 512.6c-0.31436 1.5718-33.77 53.069-33.77 53.069" fill="#fff" fill-rule="evenodd" stroke-width="2.4"/> <path d="m454.08 512.42c-0.31436 1.5718-32.77 50.069-32.77 50.069" fill="#fff" fill-rule="evenodd" stroke-width="2.4"/> <path d="m453.96 569.31c-0.31436 1.5718-34.77 52.569-34.77 52.569" fill="#fff" fill-rule="evenodd" stroke-width="2.4"/> <path d="m383.4 570.14c-0.31436 1.5718-35.27 54.569-35.27 54.569" fill="#fff" fill-rule="evenodd" stroke-width="2.4"/> <path d="m312.66 575.35c-0.31436 1.5718-32.77 50.069-32.77 50.069" fill="#fff" fill-rule="evenodd" stroke-width="2.4"/> <path d="m257.86 572.52c-0.19905 1.5718-20.749 50.069-20.749 50.069" fill="#fff" fill-rule="evenodd" stroke-width="2.4"/> <path d="m169.83 555.55c-0.19905 1.5718-20.749 50.069-20.749 50.069" fill="#fff" fill-rule="evenodd" stroke-width="2.4"/> <path d="m165.83 503.55c-0.19905 1.5718-20.749 50.069-20.749 50.069" fill="#fff" fill-rule="evenodd" stroke-width="2.4"/> <path d="m187.15 506.76c-0.19905 1.5718-20.749 50.069-20.749 50.069" fill="#fff" fill-rule="evenodd" stroke-width="2.4"/> <path d="m204.83 562.98c-0.19905 1.5718-20.749 50.069-20.749 50.069" fill="#fff" fill-rule="evenodd" stroke-width="2.4"/> <path d="m255.85 578.53c0.19905 1.5718 20.749 50.069 20.749 50.069" fill="#fff" fill-rule="evenodd" stroke-width="2.4"/> <path d="m168.52 561.21c0.19905 1.5718 20.749 50.069 20.749 50.069" fill="#fff" fill-rule="evenodd" stroke-width="2.4"/> <path d="m365.375,752.5 6.375.375" fill="#fff" fill-rule="evenodd"/> <path d="m365.62 750.62 6.375 0.375" fill="#fff" fill-rule="evenodd"/> <path d="m365.375,749 6.375.375" fill="#fff" fill-rule="evenodd"/> <path d="m365.62 747.38 6.375 0.375" fill="#fff" fill-rule="evenodd"/> <path d="m365.38 745.12 6.375 0.375" fill="#fff" fill-rule="evenodd"/> <path d="m365.125,743.5 6.375.375" fill="#fff" fill-rule="evenodd"/> <path d="m365.5,741.5 6.375.375" fill="#fff" fill-rule="evenodd"/> <path d="m365.38 739.88 6.375 0.375" fill="#fff" fill-rule="evenodd"/> <path d="m365.25,737.875 6.375.375" fill="#fff" fill-rule="evenodd"/> <path d="m363.88 735.88 10 0.75" fill="#fff" fill-rule="evenodd"/> <path d="m365.5,733.875 6.375.375" fill="#fff" fill-rule="evenodd"/> <path d="m365.38 732.12 6.375 0.375" fill="#fff" fill-rule="evenodd"/> <path d="m365.375,729.75 6.375.375" fill="#fff" fill-rule="evenodd"/> <path d="m365.375,728.25 6.375.375" fill="#fff" fill-rule="evenodd"/> <path d="m365.25,726.25 6.375.375" fill="#fff" fill-rule="evenodd"/> <path d="m365.25,724.375 6.375.375" fill="#fff" fill-rule="evenodd"/> <path d="m365.5,722.5 6.375.375" fill="#fff" fill-rule="evenodd"/> <path d="m365.375,720.5 6.375.375" fill="#fff" fill-rule="evenodd"/> <path d="m365.625,718.75 6.375.375" fill="#fff" fill-rule="evenodd"/> <path d="m365.75,715.125 6.375.375" fill="#fff" fill-rule="evenodd"/> <path d="m365.25,713.125 6.375.375" fill="#fff" fill-rule="evenodd"/> <path d="m365.25,711.5 6.375.375" fill="#fff" fill-rule="evenodd"/> <path d="m365.25,709.625 6.375.375" fill="#fff" fill-rule="evenodd"/> <path d="m365.25,707.625 6.375.375" fill="#fff" fill-rule="evenodd"/> <path d="m365.25,705.625 6.375.375" fill="#fff" fill-rule="evenodd"/> <path d="m365.38 703.38 6.375 0.375" fill="#fff" fill-rule="evenodd"/> <path d="m365.5,701.5 6.375.375" fill="#fff" fill-rule="evenodd"/> <path d="m365.5,699.5 6.375.375" fill="#fff" fill-rule="evenodd"/> <path d="m364.12 697.88 9.125 0.625" fill="#fff" fill-rule="evenodd"/> <path d="m364.38 716.88 9.125 0.625" fill="#fff" fill-rule="evenodd"/> <path d="m314.06 758.41-0.1875 0.09375-39.969-3.375 0.04289 29.83 40.645 2.9828-0.53125-29.531z" fill="#fff" fill-rule="evenodd"/> <path d="m336.84 746.72-22.75 11.656c0.53293 14.305 1.0938 28.441 1.0938 29.25 0 1.8149 19.966-8.4688 21.781-8.4688 0.91808 0 0.49228-16.22-0.125-32.438z" fill="#fff" fill-rule="evenodd"/> <path d="m135.39 544.14-0.22228-9.5582 2.4451 1.3337 0.44456 2.8897h-2.4451l-0.66684-4.4456" fill="#fff" fill-rule="evenodd"/> <path d="m402.59 720.62-16.906 5.0625 0.28125 28.062 16.625-11.781v-21.344z" fill="#fff" fill-rule="evenodd"/> </g> </svg>